<mxfile host="app.diagrams.net" modified="2024-03-14T00:53:22.088Z" agent="Mozilla/5.0 (Windows NT 10.0; Win64; x64) AppleWebKit/537.36 (KHTML, like Gecko) Chrome/122.0.0.0 Safari/537.36" etag="rr2KjcRifqWLX4CVfJMC" version="24.0.5" type="device">
  <diagram name="Page-1" id="f1b7ffb7-ca1e-a977-7cf5-a751b3c06c05">
    <mxGraphModel dx="3447" dy="1373" grid="1" gridSize="10" guides="1" tooltips="1" connect="1" arrows="1" fold="1" page="1" pageScale="1" pageWidth="826" pageHeight="1169" background="none" math="0" shadow="0">
      <root>
        <mxCell id="0" />
        <mxCell id="1" parent="0" />
        <mxCell id="QtQ8lSiah9ClLBRenUS3-11" style="edgeStyle=orthogonalEdgeStyle;rounded=0;orthogonalLoop=1;jettySize=auto;html=1;exitX=1;exitY=0.5;exitDx=0;exitDy=0;" edge="1" parent="1" source="EnNo9HQF5OWS_CK6vQaD-61">
          <mxGeometry relative="1" as="geometry">
            <mxPoint x="900" y="585.5882352941176" as="targetPoint" />
          </mxGeometry>
        </mxCell>
        <mxCell id="EnNo9HQF5OWS_CK6vQaD-61" value="" style="rounded=1;whiteSpace=wrap;html=1;arcSize=5;" parent="1" vertex="1">
          <mxGeometry x="5" y="6" width="820" height="1160" as="geometry" />
        </mxCell>
        <mxCell id="EnNo9HQF5OWS_CK6vQaD-65" value="" style="rounded=0;whiteSpace=wrap;html=1;" parent="1" vertex="1">
          <mxGeometry x="7" y="280" width="816" height="310" as="geometry" />
        </mxCell>
        <mxCell id="QtQ8lSiah9ClLBRenUS3-1" style="edgeStyle=orthogonalEdgeStyle;rounded=0;orthogonalLoop=1;jettySize=auto;html=1;" edge="1" parent="1" source="EnNo9HQF5OWS_CK6vQaD-67">
          <mxGeometry relative="1" as="geometry">
            <mxPoint x="970" y="380" as="targetPoint" />
            <Array as="points">
              <mxPoint x="138" y="380" />
              <mxPoint x="880" y="380" />
            </Array>
          </mxGeometry>
        </mxCell>
        <mxCell id="EnNo9HQF5OWS_CK6vQaD-67" value="Auckland" style="rounded=1;whiteSpace=wrap;html=1;fontSize=25;" parent="1" vertex="1">
          <mxGeometry x="48" y="300" width="180" height="60" as="geometry" />
        </mxCell>
        <mxCell id="QtQ8lSiah9ClLBRenUS3-2" style="edgeStyle=orthogonalEdgeStyle;rounded=0;orthogonalLoop=1;jettySize=auto;html=1;exitX=0.5;exitY=1;exitDx=0;exitDy=0;" edge="1" parent="1" source="EnNo9HQF5OWS_CK6vQaD-68">
          <mxGeometry relative="1" as="geometry">
            <mxPoint x="970" y="405" as="targetPoint" />
            <Array as="points">
              <mxPoint x="413" y="405" />
            </Array>
          </mxGeometry>
        </mxCell>
        <mxCell id="EnNo9HQF5OWS_CK6vQaD-68" value="Wellngton" style="rounded=1;whiteSpace=wrap;html=1;fontSize=25;" parent="1" vertex="1">
          <mxGeometry x="323" y="300" width="180" height="60" as="geometry" />
        </mxCell>
        <mxCell id="QtQ8lSiah9ClLBRenUS3-3" style="edgeStyle=orthogonalEdgeStyle;rounded=0;orthogonalLoop=1;jettySize=auto;html=1;exitX=0.5;exitY=1;exitDx=0;exitDy=0;" edge="1" parent="1" source="EnNo9HQF5OWS_CK6vQaD-69">
          <mxGeometry relative="1" as="geometry">
            <mxPoint x="970" y="350" as="targetPoint" />
            <Array as="points">
              <mxPoint x="688" y="380" />
              <mxPoint x="864" y="380" />
              <mxPoint x="864" y="350" />
            </Array>
          </mxGeometry>
        </mxCell>
        <mxCell id="EnNo9HQF5OWS_CK6vQaD-69" value="Queenstown" style="rounded=1;whiteSpace=wrap;html=1;fontSize=25;" parent="1" vertex="1">
          <mxGeometry x="598" y="300" width="180" height="60" as="geometry" />
        </mxCell>
        <mxCell id="QtQ8lSiah9ClLBRenUS3-5" style="edgeStyle=orthogonalEdgeStyle;rounded=0;orthogonalLoop=1;jettySize=auto;html=1;exitX=1;exitY=0.5;exitDx=0;exitDy=0;" edge="1" parent="1" source="EnNo9HQF5OWS_CK6vQaD-70">
          <mxGeometry relative="1" as="geometry">
            <mxPoint x="1000" y="450" as="targetPoint" />
            <Array as="points">
              <mxPoint x="1000" y="465" />
            </Array>
          </mxGeometry>
        </mxCell>
        <mxCell id="EnNo9HQF5OWS_CK6vQaD-70" value="Where to go?" style="rounded=1;whiteSpace=wrap;html=1;fontSize=25;verticalAlign=middle;" parent="1" vertex="1">
          <mxGeometry x="48" y="430" width="730" height="70" as="geometry" />
        </mxCell>
        <mxCell id="EnNo9HQF5OWS_CK6vQaD-71" value="imgbtn" style="whiteSpace=wrap;html=1;aspect=fixed;fontSize=25;" parent="1" vertex="1">
          <mxGeometry x="38" y="859" width="150" height="150" as="geometry" />
        </mxCell>
        <mxCell id="EnNo9HQF5OWS_CK6vQaD-72" value="imgbtn" style="whiteSpace=wrap;html=1;aspect=fixed;fontSize=25;" parent="1" vertex="1">
          <mxGeometry x="238" y="859" width="150" height="150" as="geometry" />
        </mxCell>
        <mxCell id="EnNo9HQF5OWS_CK6vQaD-73" value="imgbtn" style="whiteSpace=wrap;html=1;aspect=fixed;fontSize=25;" parent="1" vertex="1">
          <mxGeometry x="438" y="859" width="150" height="150" as="geometry" />
        </mxCell>
        <mxCell id="QtQ8lSiah9ClLBRenUS3-6" style="edgeStyle=orthogonalEdgeStyle;rounded=0;orthogonalLoop=1;jettySize=auto;html=1;exitX=1;exitY=0.5;exitDx=0;exitDy=0;entryX=0;entryY=1;entryDx=0;entryDy=0;" edge="1" parent="1" source="EnNo9HQF5OWS_CK6vQaD-74" target="QtQ8lSiah9ClLBRenUS3-7">
          <mxGeometry relative="1" as="geometry">
            <mxPoint x="950" y="710.2941176470588" as="targetPoint" />
          </mxGeometry>
        </mxCell>
        <mxCell id="EnNo9HQF5OWS_CK6vQaD-74" value="AMAZING DEALS btn" style="rounded=1;whiteSpace=wrap;html=1;fontSize=25;" parent="1" vertex="1">
          <mxGeometry x="98" y="720" width="630" height="60" as="geometry" />
        </mxCell>
        <mxCell id="QtQ8lSiah9ClLBRenUS3-8" style="edgeStyle=orthogonalEdgeStyle;rounded=0;orthogonalLoop=1;jettySize=auto;html=1;exitX=1;exitY=0.5;exitDx=0;exitDy=0;" edge="1" parent="1" source="EnNo9HQF5OWS_CK6vQaD-75">
          <mxGeometry relative="1" as="geometry">
            <mxPoint x="930" y="933.8235294117646" as="targetPoint" />
          </mxGeometry>
        </mxCell>
        <mxCell id="EnNo9HQF5OWS_CK6vQaD-75" value="imgbtn" style="whiteSpace=wrap;html=1;aspect=fixed;fontSize=25;" parent="1" vertex="1">
          <mxGeometry x="638" y="859" width="150" height="150" as="geometry" />
        </mxCell>
        <mxCell id="QtQ8lSiah9ClLBRenUS3-10" style="edgeStyle=orthogonalEdgeStyle;rounded=0;orthogonalLoop=1;jettySize=auto;html=1;exitX=1;exitY=0.5;exitDx=0;exitDy=0;" edge="1" parent="1" source="V0ULsexWpumegTV69PMz-5">
          <mxGeometry relative="1" as="geometry">
            <mxPoint x="1030" y="290" as="targetPoint" />
          </mxGeometry>
        </mxCell>
        <mxCell id="V0ULsexWpumegTV69PMz-5" value="Login/Register&lt;div style=&quot;font-size: 25px;&quot;&gt;Button&lt;/div&gt;" style="rounded=0;whiteSpace=wrap;html=1;fontSize=25;" parent="1" vertex="1">
          <mxGeometry x="620" y="40" width="180" height="60" as="geometry" />
        </mxCell>
        <mxCell id="QtQ8lSiah9ClLBRenUS3-4" value="&lt;font style=&quot;font-size: 24px;&quot;&gt;white filled with black outline and text&lt;/font&gt;" style="text;strokeColor=none;align=center;fillColor=none;html=1;verticalAlign=middle;whiteSpace=wrap;rounded=0;" vertex="1" parent="1">
          <mxGeometry x="980" y="360" width="110" height="30" as="geometry" />
        </mxCell>
        <mxCell id="QtQ8lSiah9ClLBRenUS3-7" value="&lt;font style=&quot;font-size: 24px;&quot;&gt;light Orange with white text button&lt;/font&gt;" style="text;strokeColor=none;align=center;fillColor=none;html=1;verticalAlign=middle;whiteSpace=wrap;rounded=0;" vertex="1" parent="1">
          <mxGeometry x="990" y="690" width="210" height="30" as="geometry" />
        </mxCell>
        <mxCell id="QtQ8lSiah9ClLBRenUS3-9" value="&lt;font style=&quot;font-size: 24px;&quot;&gt;Black outline for all imgbtn&lt;/font&gt;&lt;div&gt;&lt;font style=&quot;font-size: 24px;&quot;&gt;&lt;br&gt;&lt;/font&gt;&lt;/div&gt;&lt;div&gt;&lt;font style=&quot;font-size: 24px;&quot;&gt;these will be used to showcase amazing deals&lt;/font&gt;&lt;/div&gt;" style="text;strokeColor=none;align=center;fillColor=none;html=1;verticalAlign=middle;whiteSpace=wrap;rounded=0;" vertex="1" parent="1">
          <mxGeometry x="940" y="919" width="270" height="30" as="geometry" />
        </mxCell>
        <mxCell id="QtQ8lSiah9ClLBRenUS3-12" value="&lt;font style=&quot;font-size: 24px;&quot;&gt;&amp;nbsp;Background color&amp;nbsp;#CCE8EE (extremely Light blue)&lt;/font&gt;" style="text;strokeColor=none;align=center;fillColor=none;html=1;verticalAlign=middle;whiteSpace=wrap;rounded=0;" vertex="1" parent="1">
          <mxGeometry x="910" y="560" width="240" height="30" as="geometry" />
        </mxCell>
        <mxCell id="QtQ8lSiah9ClLBRenUS3-14" value="&lt;font style=&quot;font-size: 24px;&quot;&gt;All text is Font&amp;nbsp;&lt;/font&gt;&lt;div&gt;&lt;font style=&quot;&quot;&gt;&lt;font style=&quot;font-size: 24px;&quot;&gt;Montserrat&lt;/font&gt;&lt;br&gt;&lt;/font&gt;&lt;/div&gt;" style="text;strokeColor=none;align=center;fillColor=none;html=1;verticalAlign=middle;whiteSpace=wrap;rounded=0;" vertex="1" parent="1">
          <mxGeometry x="1030" y="110" width="240" height="170" as="geometry" />
        </mxCell>
        <mxCell id="QtQ8lSiah9ClLBRenUS3-16" value="&lt;font style=&quot;font-size: 24px;&quot;&gt;LOGO/IMG&lt;/font&gt;" style="text;html=1;align=center;verticalAlign=middle;whiteSpace=wrap;rounded=0;" vertex="1" parent="1">
          <mxGeometry x="333" y="150" width="160" height="30" as="geometry" />
        </mxCell>
      </root>
    </mxGraphModel>
  </diagram>
</mxfile>
